<?xml version="1.0" standalone="no"?>
<!DOCTYPE svg PUBLIC "-//W3C//DTD SVG 20010904//EN"
 "http://www.w3.org/TR/2001/REC-SVG-20010904/DTD/svg10.dtd">
<svg version="1.0" xmlns="http://www.w3.org/2000/svg"
 width="266.000000pt" height="190.000000pt" viewBox="0 0 266.000000 190.000000"
 preserveAspectRatio="xMidYMid meet">

<g transform="translate(0.000000,190.000000) scale(0.100000,-0.100000)"
fill="#000000" stroke="none">
<path d="M1100 1174 c-22 -26 -1 -69 34 -69 36 0 58 30 45 63 -10 26 -59 31
-79 6z"/>
<path d="M1982 1178 c-7 -7 -12 -21 -12 -33 0 -12 5 -26 12 -33 7 -7 21 -12
33 -12 12 0 26 5 33 12 7 7 12 21 12 33 0 12 -5 26 -12 33 -7 7 -21 12 -33 12
-12 0 -26 -5 -33 -12z"/>
<path d="M782 1045 c-18 -8 -35 -21 -38 -30 -9 -24 -24 -18 -24 10 0 22 -4 25
-35 25 l-35 0 0 -165 0 -165 40 0 40 0 0 110 c0 104 1 112 25 135 24 25 68 33
93 17 21 -14 32 -72 32 -169 l0 -93 35 0 35 0 0 125 c0 145 -11 178 -65 201
-42 17 -61 17 -103 -1z"/>
<path d="M480 885 l0 -165 40 0 40 0 0 165 0 165 -40 0 -40 0 0 -165z"/>
<path d="M1000 1015 l0 -35 50 0 50 0 0 -130 0 -130 40 0 40 0 0 130 0 130 45
0 c45 0 45 0 45 35 l0 35 -135 0 -135 0 0 -35z"/>
<path d="M1342 909 l3 -141 33 -29 c51 -45 131 -39 174 15 l18 21 0 -27 c0
-25 4 -28 35 -28 l35 0 0 165 0 165 -40 0 -40 0 0 -115 c0 -110 -1 -117 -25
-140 -29 -30 -68 -32 -95 -5 -18 18 -20 33 -20 140 l0 120 -41 0 -41 0 4 -141z"/>
<path d="M1740 885 l0 -165 35 0 35 0 0 165 0 165 -35 0 -35 0 0 -165z"/>
<path d="M1880 1015 c0 -35 0 -35 45 -35 l45 0 0 -130 0 -130 40 0 40 0 0 130
0 130 50 0 50 0 0 35 0 35 -135 0 -135 0 0 -35z"/>
</g>
</svg>
